<svg width="41" height="41" viewBox="0 0 41 41" fill="none" xmlns="http://www.w3.org/2000/svg">
<rect x="0.5" y="-0.5" width="40" height="40" rx="20" transform="matrix(1 1.74846e-07 1.74846e-07 -1 8.74228e-08 40)" fill="#F8F7F3"/>
<rect x="0.5" y="-0.5" width="40" height="40" rx="20" transform="matrix(1 1.74846e-07 1.74846e-07 -1 8.74228e-08 40)" stroke="#D5D1E1"/>
<path d="M28 20.5002C28 20.8645 27.7435 21.1656 27.4107 21.2133L27.3182 21.2199L15.3325 21.2193L19.6625 25.7707C19.9294 26.0511 19.9303 26.5068 19.6646 26.7884C19.4231 27.0444 19.0443 27.0685 18.777 26.8601L18.7004 26.7906L13.2003 21.0106C13.1651 20.9736 13.1345 20.9336 13.1086 20.8913C13.1013 20.8786 13.0938 20.8656 13.0868 20.8523C13.0803 20.841 13.0744 20.8292 13.0688 20.8172C13.0611 20.7998 13.0536 20.7819 13.0468 20.7636C13.0412 20.7494 13.0366 20.7357 13.0324 20.7219C13.0274 20.7047 13.0225 20.6864 13.0183 20.6678C13.0152 20.6549 13.0127 20.6424 13.0105 20.6298C13.0075 20.6112 13.0049 20.5919 13.0031 20.5724C13.0015 20.5575 13.0005 20.5427 13 20.528C12.9999 20.519 12.9997 20.5096 12.9997 20.5002L13 20.4723C13.0006 20.4582 13.0015 20.4441 13.0028 20.43L12.9997 20.5002C12.9997 20.4548 13.0037 20.4104 13.0113 20.3673C13.0131 20.357 13.0152 20.3465 13.0175 20.3359C13.0224 20.3143 13.028 20.2934 13.0344 20.273C13.0376 20.2628 13.0412 20.2519 13.0452 20.2412C13.0532 20.2195 13.0618 20.1989 13.0713 20.1788C13.0758 20.1693 13.0807 20.1594 13.0859 20.1496C13.0944 20.1336 13.1032 20.1184 13.1125 20.1036C13.119 20.0932 13.1263 20.0823 13.1339 20.0715L13.1398 20.0632C13.1581 20.0379 13.1781 20.0139 13.1994 19.9914L13.2002 19.9907L18.7003 14.2097C18.9672 13.9293 19.3989 13.9302 19.6646 14.2118C19.9061 14.4678 19.9274 14.8677 19.7288 15.149L19.6626 15.2295L15.3343 19.78L27.3182 19.7806C27.6947 19.7806 28 20.1028 28 20.5002Z" fill="#202020"/>
</svg>
