<svg width="41" height="41" viewBox="0 0 41 41" fill="none" xmlns="http://www.w3.org/2000/svg">
<rect x="-0.5" y="0.5" width="40" height="40" rx="20" transform="matrix(-1 0 0 1 40 0)" fill="#F8F7F3"/>
<rect x="-0.5" y="0.5" width="40" height="40" rx="20" transform="matrix(-1 0 0 1 40 0)" stroke="#D5D1E1"/>
<path d="M13 20.4998C13 20.1355 13.2565 19.8344 13.5893 19.7867L13.6818 19.7801L25.6675 19.7807L21.3375 15.2293C21.0706 14.9489 21.0697 14.4932 21.3354 14.2116C21.5769 13.9556 21.9557 13.9315 22.223 14.1399L22.2996 14.2094L27.7997 19.9894C27.8349 20.0264 27.8655 20.0664 27.8914 20.1087C27.8987 20.1214 27.9062 20.1344 27.9132 20.1477C27.9197 20.159 27.9256 20.1708 27.9312 20.1828C27.9389 20.2002 27.9464 20.2181 27.9532 20.2364C27.9588 20.2506 27.9634 20.2643 27.9676 20.2781C27.9726 20.2953 27.9775 20.3136 27.9817 20.3322C27.9848 20.3451 27.9873 20.3576 27.9895 20.3702C27.9925 20.3888 27.9951 20.4081 27.9969 20.4276C27.9985 20.4425 27.9995 20.4573 28 20.472C28.0001 20.481 28.0003 20.4904 28.0003 20.4998L28 20.5277C27.9994 20.5418 27.9985 20.5559 27.9972 20.57L28.0003 20.4998C28.0003 20.5452 27.9963 20.5896 27.9887 20.6327C27.9869 20.643 27.9848 20.6535 27.9825 20.6641C27.9776 20.6857 27.972 20.7066 27.9656 20.727C27.9624 20.7372 27.9588 20.7481 27.9548 20.7588C27.9468 20.7805 27.9382 20.8011 27.9287 20.8212C27.9242 20.8307 27.9193 20.8406 27.9141 20.8504C27.9056 20.8664 27.8968 20.8816 27.8875 20.8964C27.881 20.9068 27.8737 20.9177 27.8661 20.9285L27.8602 20.9368C27.8419 20.9621 27.8219 20.9861 27.8006 21.0086L27.7998 21.0093L22.2997 26.7903C22.0328 27.0707 21.6011 27.0698 21.3354 26.7882C21.0939 26.5322 21.0726 26.1323 21.2712 25.851L21.3374 25.7705L25.6657 21.22L13.6818 21.2194C13.3053 21.2194 13 20.8972 13 20.4998Z" fill="#202020"/>
</svg>
